<?xml version="1.0" encoding="UTF-8"?>
<!DOCTYPE svg PUBLIC "-//W3C//DTD SVG 1.0//EN" "http://www.w3.org/TR/2001/REC-SVG-20010904/DTD/svg10.dtd">
<!-- Creator: CorelDRAW 2019 (64-Bit) -->
<?xml-stylesheet href="sebellez.css" type="text/css"?>
<svg xmlns="http://www.w3.org/2000/svg" xml:space="preserve" width="29.9998mm" height="27.2459mm" version="1.0" style="shape-rendering:geometricPrecision; text-rendering:geometricPrecision; image-rendering:optimizeQuality; fill-rule:evenodd; clip-rule:evenodd"
viewBox="0 0 537.69 488.33"
 xmlns:xlink="http://www.w3.org/1999/xlink">
 <g id="Capa_x0020_1">
  <metadata id="CorelCorpID_0Corel-Layer"/>
  <g id="_1361679704864">
   <path class="fil0" d="M364.61 274.69c70.93,-35.94 102.69,5.07 108.39,42.71 4.19,27.63 48.71,-1.95 62.71,-12.85 9.05,9.36 -13.01,45.45 -67.43,40.37 -28.33,41.02 -111.16,38.12 -108.4,-47.55 0,-1.81 -95.57,-48.08 -102.72,-13.09 -60.19,-41.15 -224.26,-170.49 -255.88,-200.33 -4.14,-3.91 2.6,-16.7 7.75,-13.19 8.6,5.88 294.75,200.2 355.58,203.91zm51.84 4.41c23.43,0 41.83,19.38 41.83,41.83 0,22.45 -20.17,34.17 -43.6,34.17 -23.43,0 -37.11,-18.2 -37.11,-40.65 0,-22.45 15.45,-35.35 38.88,-35.35z"/>
   <path class="fil0" d="M242.97 171.61c-0.81,-1.88 0.15,-3.91 2.88,-2.99l34.35 48.57 203.97 -149.01c-4.15,-16.22 -24,-32.09 -35.23,-48.6 0.37,-1.58 1.32,-3.4 3.9,-1.77l49.42 41.6c10.72,9.01 9.43,21.06 1.24,27.24l-205.75 155.38 -280.41 202.66 -2.52 -4.88c24.67,-28.44 132.8,-115.85 202.61,-175 42.61,-36.09 51.4,-44.42 25.53,-93.18z"/>
   <path class="fil0" d="M282.22 364.65c77.63,17.19 76.19,69.04 56.73,101.76 -4.75,7.98 -28.49,19.86 -28.49,19.86 -47.91,13.76 -100.38,-43.46 -56,-103.54 -1.66,-104.47 -168.9,-335.25 -174.07,-375.62 -0.72,-5.64 1.4,-8.06 7.49,-6.77 17.24,3.65 181.8,243.9 170.52,276.16 3.63,46.82 8.69,74.11 23.82,88.14zm37.29 36.28c18.11,14.85 20.05,41.51 5.82,58.87 -14.23,17.36 -37.26,13.63 -55.38,-1.23 -18.11,-14.85 -17.16,-37.6 -2.92,-54.96 14.24,-17.36 34.37,-17.54 52.48,-2.68z"/>
   <rect class="fil0" x="225.15" y="233.61" width="9.13" height="2.95"/>
   <rect class="fil0" transform="matrix(2.34157 3.28051 -1.54552 1.27724 248.424 165.724)" width="15.06" height="1.35"/>
   <rect class="fil0" transform="matrix(2.34157 3.28051 -1.54552 1.27724 252.4 163.142)" width="15.06" height="1.35"/>
   <rect class="fil0" transform="matrix(2.34157 3.28051 -1.54552 1.27724 313.881 118.945)" width="15.06" height="1.35"/>
   <rect class="fil0" transform="matrix(2.34157 3.28051 -1.54552 1.27724 387.629 65.4647)" width="15.06" height="1.35"/>
   <rect class="fil0" transform="matrix(2.34157 3.28051 -1.54552 1.27724 256.97 160.132)" width="15.06" height="1.35"/>
   <rect class="fil0" transform="matrix(2.34157 3.28051 -1.54552 1.27724 318.451 115.935)" width="15.06" height="1.35"/>
   <rect class="fil0" transform="matrix(2.34157 3.28051 -1.54552 1.27724 392.199 62.4551)" width="15.06" height="1.35"/>
   <rect class="fil0" transform="matrix(2.34157 3.28051 -1.54552 1.27724 261.021 157.55)" width="15.06" height="1.35"/>
   <rect class="fil0" transform="matrix(2.34157 3.28051 -1.54552 1.27724 322.503 113.353)" width="15.06" height="1.35"/>
   <rect class="fil0" transform="matrix(2.34157 3.28051 -1.54552 1.27724 396.251 59.8726)" width="15.06" height="1.35"/>
   <rect class="fil0" transform="matrix(2.34157 3.28051 -1.54552 1.27724 264.666 154.662)" width="15.06" height="1.35"/>
   <rect class="fil0" transform="matrix(2.34157 3.28051 -1.54552 1.27724 326.148 110.465)" width="15.06" height="1.35"/>
   <rect class="fil0" transform="matrix(2.34157 3.28051 -1.54552 1.27724 399.896 56.9851)" width="15.06" height="1.35"/>
   <rect class="fil0" transform="matrix(2.34157 3.28051 -1.54552 1.27724 268.784 151.937)" width="15.06" height="1.35"/>
   <rect class="fil0" transform="matrix(2.34157 3.28051 -1.54552 1.27724 330.265 107.74)" width="15.06" height="1.35"/>
   <rect class="fil0" transform="matrix(2.34157 3.28051 -1.54552 1.27724 404.014 54.2603)" width="15.06" height="1.35"/>
   <rect class="fil0" transform="matrix(2.34157 3.28051 -1.54552 1.27724 272.993 148.628)" width="15.06" height="1.35"/>
   <rect class="fil0" transform="matrix(2.34157 3.28051 -1.54552 1.27724 334.475 104.431)" width="15.06" height="1.35"/>
   <rect class="fil0" transform="matrix(2.34157 3.28051 -1.54552 1.27724 408.223 50.9509)" width="15.06" height="1.35"/>
   <rect class="fil0" transform="matrix(2.34157 3.28051 -1.54552 1.27724 276.892 145.827)" width="15.06" height="1.35"/>
   <rect class="fil0" transform="matrix(2.34157 3.28051 -1.54552 1.27724 338.374 101.63)" width="15.06" height="1.35"/>
   <rect class="fil0" transform="matrix(2.34157 3.28051 -1.54552 1.27724 412.122 48.1498)" width="15.06" height="1.35"/>
   <rect class="fil0" transform="matrix(2.34157 3.28051 -1.54552 1.27724 281.02 143.087)" width="15.06" height="1.35"/>
   <rect class="fil0" transform="matrix(2.34157 3.28051 -1.54552 1.27724 342.502 98.8896)" width="15.06" height="1.35"/>
   <rect class="fil0" transform="matrix(2.34157 3.28051 -1.54552 1.27724 416.25 45.4097)" width="15.06" height="1.35"/>
   <rect class="fil0" transform="matrix(2.34157 3.28051 -1.54552 1.27724 284.996 139.472)" width="15.06" height="1.35"/>
   <rect class="fil0" transform="matrix(2.34157 3.28051 -1.54552 1.27724 346.477 95.2751)" width="15.06" height="1.35"/>
   <rect class="fil0" transform="matrix(2.34157 3.28051 -1.54552 1.27724 420.225 41.7952)" width="15.06" height="1.35"/>
   <rect class="fil0" transform="matrix(2.34157 3.28051 -1.54552 1.27724 288.61 136.392)" width="15.06" height="1.35"/>
   <rect class="fil0" transform="matrix(2.34157 3.28051 -1.54552 1.27724 350.092 92.1944)" width="15.06" height="1.35"/>
   <rect class="fil0" transform="matrix(2.34157 3.28051 -1.54552 1.27724 423.84 38.7145)" width="15.06" height="1.35"/>
   <rect class="fil0" transform="matrix(2.34157 3.28051 -1.54552 1.27724 292.952 133.514)" width="15.06" height="1.35"/>
   <rect class="fil0" transform="matrix(2.34157 3.28051 -1.54552 1.27724 354.433 89.3171)" width="15.06" height="1.35"/>
   <rect class="fil0" transform="matrix(2.34157 3.28051 -1.54552 1.27724 428.181 35.8372)" width="15.06" height="1.35"/>
   <rect class="fil0" transform="matrix(2.34157 3.28051 -1.54552 1.27724 296.602 131.211)" width="15.06" height="1.35"/>
   <rect class="fil0" transform="matrix(2.34157 3.28051 -1.54552 1.27724 358.083 87.0142)" width="15.06" height="1.35"/>
   <rect class="fil0" transform="matrix(2.34157 3.28051 -1.54552 1.27724 431.831 33.5343)" width="15.06" height="1.35"/>
   <rect class="fil0" transform="matrix(2.34157 3.28051 -1.54552 1.27724 300.648 128.044)" width="15.06" height="1.35"/>
   <rect class="fil0" transform="matrix(2.34157 3.28051 -1.54552 1.27724 374.396 74.5644)" width="15.06" height="1.35"/>
   <rect class="fil0" transform="matrix(2.34157 3.28051 -1.54552 1.27724 362.13 83.8471)" width="15.06" height="1.35"/>
   <rect class="fil0" transform="matrix(2.34157 3.28051 -1.54552 1.27724 435.878 30.3672)" width="15.06" height="1.35"/>
   <rect class="fil0" transform="matrix(2.34157 3.28051 -1.54552 1.27724 304.634 125.035)" width="15.06" height="1.35"/>
   <rect class="fil0" transform="matrix(2.34157 3.28051 -1.54552 1.27724 378.382 71.5549)" width="15.06" height="1.35"/>
   <rect class="fil0" transform="matrix(2.34157 3.28051 -1.54552 1.27724 366.115 80.8376)" width="15.06" height="1.35"/>
   <rect class="fil0" transform="matrix(2.34157 3.28051 -1.54552 1.27724 439.863 27.3577)" width="15.06" height="1.35"/>
   <rect class="fil0" transform="matrix(2.34157 3.28051 -1.54552 1.27724 309.194 122.452)" width="15.06" height="1.35"/>
   <rect class="fil0" transform="matrix(2.34157 3.28051 -1.54552 1.27724 382.942 68.9724)" width="15.06" height="1.35"/>
   <rect class="fil0" transform="matrix(2.34157 3.28051 -1.54552 1.27724 370.675 78.2551)" width="15.06" height="1.35"/>
   <rect class="fil0" transform="matrix(2.32122 3.29494 -1.5534 1.26765 444.582 24.673)" width="15.06" height="1.35"/>
   <rect class="fil0" transform="matrix(2.42446 3.21973 -1.51245 1.31624 447.783 20.9057)" width="15.06" height="1.35"/>
  </g>
 </g>
</svg>
