<?xml version="1.0" encoding="UTF-8"?>
<!DOCTYPE svg PUBLIC "-//W3C//DTD SVG 1.0//EN" "http://www.w3.org/TR/2001/REC-SVG-20010904/DTD/svg10.dtd">
<!-- Creator: CorelDRAW 2019 (64-Bit) -->
<?xml-stylesheet href="seconmed.css" type="text/css"?>
<svg xmlns="http://www.w3.org/2000/svg" xml:space="preserve" width="26.8986mm" height="30mm" version="1.0" style="shape-rendering:geometricPrecision; text-rendering:geometricPrecision; image-rendering:optimizeQuality; fill-rule:evenodd; clip-rule:evenodd"
viewBox="0 0 5526.03 6163.18"
 xmlns:xlink="http://www.w3.org/1999/xlink">
 <g id="Capa_x0020_1">
  <metadata id="CorelCorpID_0Corel-Layer"/>
  <g id="_1363518902624">
   <path class="fil0" d="M2821.36 0c765.28,0 1385.69,661.74 1385.69,1478.08 0,816.33 -620.41,1478.08 -1385.69,1478.08 -765.26,0 -1385.67,-661.74 -1385.67,-1478.08 0,-816.33 620.41,-1478.08 1385.67,-1478.08zm470.25 1977.75c0,118.27 -242.4,331.68 -520.69,331.68 -278.27,0 -487.06,-213.41 -487.06,-331.68 503.88,214.15 628.81,107.65 1007.74,0z"/>
   <path class="fil0" d="M2229.31 5248.83c0,0 92.71,-1105.65 -639.37,-1228.08 79.42,-105.7 262.39,-917.92 383.86,-820.79 202.52,161.97 923.18,949.19 1669.48,-99.49 113.98,124.78 339.88,276.32 365.19,547.11 -588.83,405.78 -53.85,783.32 -13.54,762.92 43.51,-22.04 492.13,6.04 498.4,-390.95 5.79,-367.94 -316.97,-351.1 -319.87,-416.75 -15.84,-358.43 -375.75,-509.47 -290.49,-549.82 867.22,-106.4 2118,1580.9 1457.82,3081.88 -184.59,40.82 -5101.12,38.25 -5248.81,-12.57 -319.11,-858.94 185.37,-3243.6 1621.49,-3041.82 66.19,85.71 -210.88,463.74 -343.95,960.7 -458.44,38.15 -629.45,884.99 -695.47,1130.57 -30.47,113.46 336.88,20.11 345.67,106.54 15.28,149.74 -24.45,-295.75 44.64,-192 22.06,33.14 -187.55,130.82 -167.19,-49.39 30.88,-272.93 325.64,-876.73 642.04,-798.03 219.18,54.52 596.35,146.27 528.12,864.22 -3.99,41.89 -261.26,13.66 -305.9,9.57 -50.97,-4.68 -32.11,135.22 -32.11,135.22 30.2,48.34 387.07,4.03 499.98,0.97z"/>
  </g>
 </g>
</svg>
