<?xml version="1.0" encoding="UTF-8"?>
<!DOCTYPE svg PUBLIC "-//W3C//DTD SVG 1.0//EN" "http://www.w3.org/TR/2001/REC-SVG-20010904/DTD/svg10.dtd">
<!-- Creator: CorelDRAW 2019 (64-Bit) -->
<?xml-stylesheet href="segimna.css" type="text/css"?>
<svg xmlns="http://www.w3.org/2000/svg" xml:space="preserve" width="22.8814mm" height="29.9999mm" version="1.0" style="shape-rendering:geometricPrecision; text-rendering:geometricPrecision; image-rendering:optimizeQuality; fill-rule:evenodd; clip-rule:evenodd"
viewBox="0 0 326.69 428.32"
 xmlns:xlink="http://www.w3.org/1999/xlink">
 <g id="Capa_x0020_1">
  <metadata id="CorelCorpID_0Corel-Layer"/>
  <path class="fil0" d="M158.55 31.41c72.85,-4.15 135.27,51.53 139.42,124.38 4.15,72.84 -51.53,135.27 -124.38,139.42 -72.85,4.15 -135.27,-51.53 -139.42,-124.38 -4.15,-72.84 51.53,-135.27 124.38,-139.42zm0.96 16.7c63.62,-3.63 118.14,45.01 121.77,108.63 3.63,63.63 -45.01,118.15 -108.63,121.77 -63.63,3.63 -118.15,-45.01 -121.77,-108.63 -3.63,-63.62 45.01,-118.14 108.63,-121.77z"/>
  <path class="fil0" d="M153.82 0.41c103.93,-7.04 170.31,77.4 172.71,153.01 5.57,175.85 -140.58,275.88 -162.68,274.88 -29.58,1.68 -158.59,-105.38 -163.75,-263.66 -2.78,-85.33 49.79,-157.2 153.72,-164.23zm1.18 19.67c78.63,-4.27 139.07,30.01 150.5,127.96 11.43,97.95 -102.14,258.29 -140.66,247.04 -48.38,-1.88 -143.36,-125.59 -144.1,-231.56 -4.48,-74.94 55.63,-139.17 134.26,-143.44z"/>
  <g id="_1361682411760">
   <path class="fil0" d="M112.18 90.82l0.01 0c8.9,0 16.18,7.27 16.18,16.18l0 117.42c0,8.9 -7.27,16.18 -16.18,16.18l-0.01 0c-8.9,0 -16.17,-7.27 -16.17,-16.18l0 -117.42c0,-8.9 7.27,-16.18 16.17,-16.18zm-0.66 12.24c4.09,0.59 4.45,12.67 4.45,21.03l-0.13 85.24c-0.01,8.73 1.68,18.92 -3.65,19.29 -6.31,0.43 -5.57,-12.68 -5.53,-19.02l0.54 -86.04c0.04,-6.35 -1.92,-21.4 4.33,-20.5z"/>
   <path class="fil0" d="M96.01 107c6.35,0 3.3,8 3.21,16.05l-1.07 91.51c-0.1,8.53 -1.94,8.65 -4.5,8.81 -10.06,0.64 -22.72,-8.1 -23.16,-14.43 -1.86,-27.11 -2.4,-59.32 0.01,-87.77 1.02,-12.12 16.68,-14.17 25.51,-14.17zm-8.03 11.63c2.91,0.41 5.32,8.51 5.32,14.46l-0.09 60.81c-0.01,6.23 1.2,13.5 -2.6,13.76 -4.5,0.3 -8.73,-7.97 -8.76,-12.5l-0.42 -62.18c-0.03,-4.53 2.11,-14.99 6.56,-14.36z"/>
  </g>
  <g id="_1361682412240">
   <path class="fil0" d="M219.85 239.5l-0 0c-8.9,-0.03 -16.16,-7.33 -16.13,-16.23l0.39 -117.42c0.03,-8.9 7.33,-16.16 16.23,-16.13l0 0c8.9,0.03 16.15,7.33 16.12,16.23l-0.39 117.42c-0.03,8.9 -7.32,16.16 -16.22,16.13zm0.7 -12.24c-4.09,-0.6 -4.41,-12.68 -4.38,-21.05l0.42 -85.24c0.04,-8.73 -1.62,-18.93 3.71,-19.28 6.31,-0.41 5.53,12.69 5.47,19.04l-0.82 86.04c-0.06,6.35 1.85,21.4 -4.4,20.48z"/>
   <path class="fil0" d="M236.08 223.37c-6.35,-0.02 -3.27,-8.01 -3.15,-16.06l1.37 -91.51c0.12,-8.53 1.97,-8.64 4.53,-8.8 10.07,-0.61 22.69,8.18 23.11,14.51 1.77,27.12 2.2,59.32 -0.3,87.77 -1.06,12.11 -16.73,14.12 -25.55,14.09zm8.07 -11.6c-2.91,-0.42 -5.29,-8.53 -5.27,-14.48l0.29 -60.81c0.03,-6.23 -1.15,-13.51 2.65,-13.75 4.5,-0.29 8.71,8 8.72,12.53l0.21 62.18c0.01,4.53 -2.16,14.98 -6.61,14.33z"/>
  </g>
  <rect class="fil0" x="125.14" y="144.31" width="81.85" height="12.31"/>
  <rect class="fil0" x="125.14" y="170.79" width="81.85" height="12.31"/>
 </g>
</svg>
