<?xml version="1.0" encoding="UTF-8"?>
<!DOCTYPE svg PUBLIC "-//W3C//DTD SVG 1.0//EN" "http://www.w3.org/TR/2001/REC-SVG-20010904/DTD/svg10.dtd">
<!-- Creator: CorelDRAW 2019 (64-Bit) -->
<?xml-stylesheet href="segobier.css" type="text/css"?>
<svg xmlns="http://www.w3.org/2000/svg" xml:space="preserve" width="22.0086mm" height="30mm" version="1.0" style="shape-rendering:geometricPrecision; text-rendering:geometricPrecision; image-rendering:optimizeQuality; fill-rule:evenodd; clip-rule:evenodd"
viewBox="0 0 793.42 1081.51"
 xmlns:xlink="http://www.w3.org/1999/xlink">
 <g id="Capa_x0020_1">
  <metadata id="CorelCorpID_0Corel-Layer"/>
  <g id="_1361562059312">
   <path class="fil0" d="M113.48 359.35l267.68 -141.32 3.38 -187.58c0.02,-40.46 41.6,-41.57 39.96,2.49 53.76,47.61 121.66,-34.46 211.16,13.16l0.27 126.95c-66.1,-63.72 -157.14,30.5 -210.77,-11.6l-2.94 54.23 273.16 143.68c141.28,65.97 119.71,123.63 0,113.12l-3.32 503.76 -114.74 -1.25 -3.67 -431.69 -112.7 1.95 -1.65 428.46 -113.04 -1.23 -0.13 -428.49 -112.94 0.32 -1.69 426.93 -114.59 -1.24 -3.41 -494.2c-149.63,6.07 -152.96,-24.43 0,-116.44z"/>
   <polygon class="fil0" points="90.61,1004.91 714.08,1004.91 788.07,1081.51 21.62,1081.51 "/>
  </g>
 </g>
</svg>
