<?xml version="1.0" encoding="UTF-8"?>
<!DOCTYPE svg PUBLIC "-//W3C//DTD SVG 1.0//EN" "http://www.w3.org/TR/2001/REC-SVG-20010904/DTD/svg10.dtd">
<!-- Creator: CorelDRAW 2019 (64-Bit) -->
<?xml-stylesheet href="seterapi.css" type="text/css"?>
<svg xmlns="http://www.w3.org/2000/svg" xml:space="preserve" width="30mm" height="29.9556mm" version="1.0" style="shape-rendering:geometricPrecision; text-rendering:geometricPrecision; image-rendering:optimizeQuality; fill-rule:evenodd; clip-rule:evenodd"
viewBox="0 0 330.71 330.22"
 xmlns:xlink="http://www.w3.org/1999/xlink">
 <g id="Capa_x0020_1">
  <metadata id="CorelCorpID_0Corel-Layer"/>
  <g id="_1361677402256">
   <circle class="fil0" cx="162.16" cy="34.66" r="34.66"/>
   <circle class="fil0" cx="296.05" cy="201.9" r="34.66"/>
   <rect class="fil0" x="1.94" y="248.73" width="309.1" height="29.04"/>
   <rect class="fil0" x="25.36" y="290.88" width="25.29" height="39.34"/>
   <rect class="fil0" x="261.4" y="289.95" width="28.1" height="40.28"/>
   <path class="fil0" d="M129.33 176.53l95.54 0c51.53,0 14.91,46.91 21.78,68.14l-33.25 -0.94 -2.58 -3.51 -196.7 0c-13.39,0 -37.88,-47.63 43.99,-54.61 18.74,-1.6 39.55,-7.49 71.22,-9.08z"/>
   <path class="fil0" d="M109.89 74.75c3.17,-7.4 13.65,-3.65 23.98,-0.91l27.77 10.74c7.93,3.07 6.59,34.66 18.65,39.42l40.09 15.82c17.47,6.9 7.98,28.52 -2.07,26.24l-52.65 -11.9c-5.95,-1.34 -9.16,-17.07 -16.54,-22.45 -7.03,8.16 -11.72,24.28 -17.57,36.41 -21.35,-1.86 -42.69,3.78 -64.04,5.67l42.38 -99.05z"/>
  </g>
 </g>
</svg>
