<?xml version="1.0" encoding="UTF-8"?>
<!DOCTYPE svg PUBLIC "-//W3C//DTD SVG 1.0//EN" "http://www.w3.org/TR/2001/REC-SVG-20010904/DTD/svg10.dtd">
<!-- Creator: CorelDRAW 2019 (64-Bit) -->
<?xml-stylesheet href="sezoolog.css" type="text/css"?>
<svg xmlns="http://www.w3.org/2000/svg" xml:space="preserve" width="21.6602mm" height="29.9999mm" version="1.0" style="shape-rendering:geometricPrecision; text-rendering:geometricPrecision; image-rendering:optimizeQuality; fill-rule:evenodd; clip-rule:evenodd"
viewBox="0 0 772.91 1070.5"
 xmlns:xlink="http://www.w3.org/1999/xlink">
 <g id="Capa_x0020_1">
  <metadata id="CorelCorpID_0Corel-Layer"/>
  <g id="_1363517983472">
   <path class="fil0" d="M193.43 613.93c88.33,-67.48 227.88,-28.25 344.19,22.69 136.24,57.38 62.36,-65.84 184.78,-24.18 10.27,4.26 15.28,11.78 23.88,38.71 0.98,28.69 40.5,43.21 15.43,80.51 -23.07,25.65 -18.6,21.51 -33.69,25.9 -24.46,7.13 -53.94,-3.48 -67.78,-9.06 -35.29,4.6 2.12,36.54 -41.84,120.04 -20.29,29.11 50.55,83.8 64.19,139.91 76.31,8.81 102.91,27.17 43.68,37.87 -65.8,12.04 -144.93,-97.45 -172.85,-160.43 -15.36,-34.76 -27.81,-42.7 -35.21,24.82 -4.42,40.32 -13.56,100.08 4.68,119 103.73,-5.21 53.33,54.46 15.53,37.84 -50.5,0 -46.55,-29.68 -56.17,-43.36 0.07,-16.9 -24.66,-75.73 -36.6,-121.76 -4.83,-18.65 -0.75,-38.3 -2.65,-47.41 33.39,-52.63 27.79,-55 0.74,-56.54 -13.17,-0.76 -53.43,-17.95 -23.14,18.37 28.34,33.99 -37.12,157.49 -43.85,179.25 5.57,17.42 50.99,27.56 94.19,44.86 39.31,15.74 2.48,35.44 -62.91,11.49 -22.77,-8.34 -96.73,-16.08 -72.97,-59.89 6.52,-36.1 3.75,-76.82 13.27,-129.91 -3.72,-29.25 -71.93,-42.2 -87.76,-49.56 17.72,106.8 -180.09,149.03 -180.09,140.91 -10.74,0.65 -29.49,7.09 -1.82,22.6 113.78,45.65 48.86,137.1 -64.01,-13.35 -30.32,-44.68 127.03,-90.09 139.4,-102.81 45.38,-11.93 -15.22,-52.58 5.73,-150.1 25.05,-48.06 -51.97,-15.76 -91.68,-53.42 -3.14,-2.97 -105.6,-65.58 -53.22,-230.97 11.27,-38.59 45.48,-67.65 85.75,-89.91 71.63,-39.61 160.34,-58.8 177.34,-69.77 13.47,-8.69 44.4,-23.6 65.69,-54.1 23.59,-33.81 38.35,-78.5 17.31,-119.28 -17.46,-29.95 -38.08,-52.95 -56.53,-60.75 -37.88,-15.99 -38.16,-45.12 26.38,-25.76 17.2,5.16 38.09,20.6 54.05,44.83 23.91,36.28 70.37,154.55 -70.25,240.69 -83.3,59.45 -175.7,48.9 -220.02,129.91 -90.9,164.19 70.05,210.58 98.83,192.08z"/>
   <g>
    <path class="fil0" d="M205.93 376.24l113.76 0.8c29.05,-0.65 23.81,39.63 18.57,40.84l-62.5 63.58 44.98 0.32c27.77,-0.17 30.56,49.62 0.39,52.1l-114.79 0.98c-18.6,-3 -27.21,-30.33 -14.98,-42.11l60.81 -65.22 -46.51 0c-30.48,-3.81 -24.54,-49.35 0.26,-51.3z"/>
    <path class="fil0" d="M474.35 373.33c46.87,0 84.86,36.27 84.86,81.01 0,44.74 -38,81.01 -84.86,81.01 -46.87,0 -84.87,-36.27 -84.87,-81.01 0,-44.74 38,-81.01 84.87,-81.01zm0 59.12c12.67,0 22.93,9.8 22.93,21.89 0,12.09 -10.27,21.9 -22.93,21.9 -12.67,0 -22.94,-9.8 -22.94,-21.9 0,-12.09 10.27,-21.89 22.94,-21.89z"/>
    <path class="fil0" d="M688.05 371.21c46.87,0 84.86,36.27 84.86,81.01 0,44.74 -38,81.01 -84.86,81.01 -46.87,0 -84.87,-36.27 -84.87,-81.01 0,-44.74 38,-81.01 84.87,-81.01zm0 59.11c12.67,0 22.93,9.8 22.93,21.9 0,12.09 -10.27,21.89 -22.93,21.89 -12.67,0 -22.94,-9.8 -22.94,-21.89 0,-12.09 10.27,-21.9 22.94,-21.9z"/>
   </g>
  </g>
 </g>
</svg>
