<?xml version="1.0" encoding="UTF-8"?>
<!DOCTYPE svg PUBLIC "-//W3C//DTD SVG 1.1//EN" "http://www.w3.org/Graphics/SVG/1.1/DTD/svg11.dtd">
<!-- Creator: CorelDRAW 2019 (64-Bit) -->
<svg xmlns="http://www.w3.org/2000/svg" xml:space="preserve" width="25.7658mm" height="29.9998mm" version="1.1" style="shape-rendering:geometricPrecision; text-rendering:geometricPrecision; image-rendering:optimizeQuality; fill-rule:evenodd; clip-rule:evenodd"
viewBox="0 0 247.8 288.52"
 xmlns:xlink="http://www.w3.org/1999/xlink">
 <defs>
  <style type="text/css">
   <![CDATA[
    .fil0 {fill:#CACACC}
   ]]>
  </style>
 </defs>
 <g id="Capa_x0020_1">
  <metadata id="CorelCorpID_0Corel-Layer"/>
  <g id="_1362670184192">
   <path class="fil0" d="M88.56 0.15c22.31,7.41 20.58,35.05 20.58,66.93 0,31.88 -15.28,42.67 -31.94,48.51 -16.65,5.83 -40.25,-14.48 -40.25,-46.36 0,-31.88 21.4,-69.08 51.61,-69.08z"/>
   <path class="fil0" d="M155.97 0.15c21.42,-2.72 50.74,32.48 50.74,59.14 0,26.66 -11.55,55.93 -33.71,55.93 -30.8,0 -37.41,-32.23 -35.93,-60.87 1.48,-28.64 -2.53,-51.48 18.89,-54.2z"/>
   <path class="fil0" d="M12.86 102.72c13.5,0 39.07,23.11 42.22,34.57 3.16,11.46 8.07,35.31 -13.33,45.68 -21.4,10.37 -39.02,-11.78 -41.24,-33.83 -1.27,-12.63 -1.16,-46.42 12.35,-46.42z"/>
   <path class="fil0" d="M234.51 102.03c13.5,0 14.12,32.25 12.84,44.94 -1.2,11.83 -11.18,46.1 -37.71,37.56 -12.64,-4.07 -24.79,-22.25 -20.07,-40.03 3.09,-11.65 31.44,-42.47 44.94,-42.47z"/>
   <path class="fil0" d="M83.25 152.79c11.75,-57 73.89,-44.55 79.99,3.33 15.01,59.21 19.2,26.98 49.78,62.07 27.81,31.91 -26.95,99.05 -89.05,56.76 -16.29,9.72 -28.12,9.93 -36.77,11.43 -45.53,7.9 -75.56,-33.07 -57.04,-65.56 18.52,-32.49 39.43,-1.73 53.09,-68.03zm2.58 55.92l26.42 0 -0.25 -26.18 19.21 -0.24 0.32 26.04 25.31 -0.48 -0.26 18.13 -24.8 0.13 -0.25 27.44 -19.13 -0.03 -0.15 -27.26 -26.42 0 0 -17.55z"/>
  </g>
 </g>
</svg>
