<?xml version="1.0" encoding="UTF-8"?>
<!DOCTYPE svg PUBLIC "-//W3C//DTD SVG 1.0//EN" "http://www.w3.org/TR/2001/REC-SVG-20010904/DTD/svg10.dtd">
<!-- Creator: CorelDRAW 2019 (64-Bit) -->
<?xml-stylesheet href="sediscot.css" type="text/css"?>
<svg xmlns="http://www.w3.org/2000/svg" xml:space="preserve" width="28.3506mm" height="30mm" version="1.0" style="shape-rendering:geometricPrecision; text-rendering:geometricPrecision; image-rendering:optimizeQuality; fill-rule:evenodd; clip-rule:evenodd"
viewBox="0 0 6904.41 7306.1"
 xmlns:xlink="http://www.w3.org/1999/xlink">
 <g id="Capa_x0020_1">
  <metadata id="CorelCorpID_0Corel-Layer"/>
  <g id="_1361678052416">
   <path class="fil0" d="M3693.45 1993.1c1474.13,0 2727.59,1246.69 2727.59,2681.56 0,1434.85 -1203.36,2631.44 -2677.52,2631.44 -1474.13,0 -2719.23,-1280.08 -2719.23,-2714.95 0,-1434.85 1195.01,-2598.05 2669.16,-2598.05zm-1284.88 702.02c207.81,-135.82 395.97,-212.73 638.14,-289.64l-181.63 1168.29 -638.14 53.99 181.63 -932.65zm2154.96 3004.17l643.03 -39.28 -157.08 927.75 -662.69 294.53 176.73 -1183zm-1369.58 53.99l1030.84 -14.73 -206.15 1227.21 -613.62 -4.92 -211.07 -1207.55zm-996.45 -122.69l701.92 107.96 162 1183.03 -667.61 -363.26 -196.31 -927.73zm-63.83 -1634.64l711.76 -103.09 0.02 1521.74 -667.63 -122.74c-58.89,-446.7 -39.23,-834.48 -44.15,-1295.91zm-726.49 127.64l418.4 -60.62 3.75 1170 -377.99 -68.73c-107.98,-446.7 -88.33,-584.15 -44.15,-1040.66zm147.27 1379.37l310.41 62.1 77.37 639.84c-79.61,-174.2 -302.2,-374.39 -387.78,-701.95zm3919.14 732.36l84.82 -653.53 368.23 -55.79c-97.56,164.8 -233.02,452.05 -453.05,709.33zm145.34 -2160.83l436.83 43.45c31.1,337.3 37.65,645.18 -24.5,1026.65l-432.72 114.02 20.38 -1184.12zm-1232.1 -1683.72c251.96,58.67 433.84,173.86 652.82,279.07 75.28,293.12 148.63,571.99 166.92,957.93l-643.79 -67.61 -175.96 -1169.39zm1513.82 1390.16l-317.69 -79.2 -107.94 -639.97c167.46,195.97 439.49,574.8 425.63,719.16zm-3931.37 -662.23l-102.5 606.7 -331.62 44.18c109.01,-233.58 296.99,-603.7 434.13,-650.88zm1425.96 -801.58c237.25,-50.73 390.95,-31.93 638.14,-34.36l176.71 1246.84 -996.48 -24.55 181.63 -1187.92zm-220.91 1556.13l1050.47 4.87c58.91,515.45 53.99,967.04 14.73,1531.55l-1045.58 -4.92c-64.22,-628.54 -28.3,-1005.88 -19.63,-1531.51zm1413.76 24.55l677.4 73.6c58.91,515.42 53.97,805.04 14.71,1369.55l-672.5 88.36c-10.23,-643.25 10.98,-971.52 -19.6,-1531.51zm-1587.1 270.59c85.9,0 155.52,218.36 155.52,487.71 0,269.35 -69.63,487.71 -155.52,487.71 -85.9,0 -155.52,-218.36 -155.52,-487.71 0,-269.35 69.63,-487.71 155.52,-487.71z"/>
   <path class="fil0" d="M3577.09 69.99c129.44,-86.29 166.99,-101.58 325.66,4.19l0 1097.91c554.53,169.77 386.42,664.47 434.3,901.23l-346.85 -63.34 -9.6 -381.16 -498.2 13.61 -2.73 358.88 -307.98 41.4c41.26,-312.53 -151.7,-670.72 404.9,-874.59l0.49 -1098.13z"/>
   <path class="fil0" d="M335.54 1232.61l270.06 618.95c-1434.16,424.36 66.39,1721.2 544.18,421.44l-529.16 -1192.55 959 -511.87 333.79 656.4c-1441.59,593.94 55.75,1613.7 530.3,404.22l-636.04 -1377.74c-102.48,-147.46 -200.77,-82.02 -269.84,-29.1l-1206.55 670.21c-51.46,59.08 -65.34,109.79 -66.7,177.22l70.97 162.8zm324.54 1234.05c132.95,-80.93 204.74,-205.59 160.39,-278.46 -44.35,-72.84 -188.06,-66.34 -321.01,14.59 -132.95,80.9 -204.77,205.57 -160.42,278.44 44.37,72.87 188.08,66.34 321.03,-14.56zm1273.26 -609.5c132.92,-80.9 204.74,-205.57 160.39,-278.44 -44.35,-72.87 -188.08,-66.34 -321.01,14.56 -132.95,80.93 -204.77,205.57 -160.42,278.46 44.35,72.84 188.08,66.32 321.03,-14.59z"/>
   <path class="fil0" d="M5795.74 491.87c31.39,-105.74 71.14,-131.22 275.78,-77.83 219.55,67 410.31,157.64 696.9,173.86 169.21,-6.16 215.07,313.29 -65.63,294.63l-605.38 -118.07 -146.83 1126.07c-13.35,102.43 -169.84,260.17 -237.01,309.41 -940.27,689.11 -1521.3,-1082.06 -72.28,-722.87 105.74,-328.38 59.86,-666.54 154.45,-985.2zm-453.66 1188.12c141.79,0 256.71,75.69 256.71,169.06 0,93.37 -114.92,169.06 -256.71,169.06 -141.79,0 -256.74,-75.69 -256.74,-169.06 0,-93.37 114.95,-169.06 256.74,-169.06z"/>
  </g>
 </g>
</svg>
