<?xml version="1.0" encoding="UTF-8"?>
<!DOCTYPE svg PUBLIC "-//W3C//DTD SVG 1.1//EN" "http://www.w3.org/Graphics/SVG/1.1/DTD/svg11.dtd">
<!-- Creator: CorelDRAW 2019 (64-Bit) -->
<svg xmlns="http://www.w3.org/2000/svg" xml:space="preserve" width="30mm" height="24.415mm" version="1.1" style="shape-rendering:geometricPrecision; text-rendering:geometricPrecision; image-rendering:optimizeQuality; fill-rule:evenodd; clip-rule:evenodd"
viewBox="0 0 330.71 269.14"
 xmlns:xlink="http://www.w3.org/1999/xlink">
 <defs>
  <style type="text/css">
   <![CDATA[
    .fil0 {fill:#CACACC}
   ]]>
  </style>
 </defs>
 <g id="Capa_x0020_1">
  <metadata id="CorelCorpID_0Corel-Layer"/>
  <path class="fil0" d="M147 8.78c17.27,-12.6 19.8,-10.76 35.02,0l106.19 75.12 -245.7 1.13 104.5 -76.25zm-76.77 88.91l28.52 0 3.95 112.12 -36.71 0 4.24 -112.12zm158.08 -0.12l28.52 0 3.95 112.12 -36.72 0 4.24 -112.12zm-99.51 0l25.3 0 0 111.84 -25.3 0 0 -111.84zm47.81 -0.12l25.3 0 0 111.84 -25.3 0 0 -111.84zm-176.61 147.41l330.71 0 0 24.29 -330.71 0 0 -24.29zm34.17 -26.55l262.37 0 0 15.82 -262.37 0 0 -15.82z"/>
 </g>
</svg>
