<?xml version="1.0" encoding="UTF-8"?>
<!DOCTYPE svg PUBLIC "-//W3C//DTD SVG 1.0//EN" "http://www.w3.org/TR/2001/REC-SVG-20010904/DTD/svg10.dtd">
<!-- Creator: CorelDRAW 2019 (64-Bit) -->
<?xml-stylesheet href="serestau.css" type="text/css"?>
<svg xmlns="http://www.w3.org/2000/svg" xml:space="preserve" width="29.79mm" height="30.0001mm" version="1.0" style="shape-rendering:geometricPrecision; text-rendering:geometricPrecision; image-rendering:optimizeQuality; fill-rule:evenodd; clip-rule:evenodd"
viewBox="0 0 324.86 327.16"
 xmlns:xlink="http://www.w3.org/1999/xlink">
 <defs>
    <clipPath id="id0">
     <path d="M0.48 327.14l324.38 0 -0.48 0.02 -324.38 0 0.48 -0.02z"/>
    </clipPath>
 </defs>
 <g id="Capa_x0020_1">
  <metadata id="CorelCorpID_0Corel-Layer"/>
  <g id="_1363517963888">
   <g style="clip-path:url(#id0)">
   </g>
  </g>
  <g id="_1363517972112">
   <path class="fil0" d="M158.57 23.99c55.64,-3.17 103.32,39.36 106.49,95 3.17,55.64 -41.38,126.57 -97.02,129.74 -55.63,3.17 -101.29,-62.62 -104.47,-118.25 -3.17,-55.64 39.36,-103.32 95,-106.49zm0.73 12.75c48.59,-2.77 90.24,34.38 93.01,82.97 2.77,48.59 -34.38,111.98 -82.97,114.75 -48.59,2.77 -90.24,-56.12 -93.01,-104.71 -2.77,-48.59 34.38,-90.24 82.97,-93.01z"/>
   <path class="fil0" d="M154.96 0.32c79.38,-5.37 130.09,59.12 131.92,116.87 4.25,134.31 -107.37,210.71 -124.25,209.95 -22.59,1.28 -121.13,-80.49 -125.07,-201.38 -2.12,-65.17 38.03,-120.07 117.41,-125.44zm0.9 15.02c60.06,-3.26 106.22,22.92 114.95,97.74 8.73,74.81 -78.01,197.28 -107.44,188.69 -36.95,-1.44 -109.5,-95.93 -110.06,-176.87 -3.43,-57.24 42.49,-106.3 102.55,-109.56z"/>
   <ellipse class="fil0" cx="162.24" cy="263.89" rx="9.1" ry="10.11"/>
   <g>
    <path class="fil0" d="M125.16 114.16c0.1,-2.48 -6.2,-6.16 -7.93,-8.13 -3.09,-3.53 -0.08,-37.73 1.15,-44.87 0.17,-0.96 0.7,-1 0.76,0.19 0.5,10.6 -0.32,29.59 1.85,29.69 1.59,-0.56 2.31,-12.29 3.21,-29.42 0.06,-1.14 0.72,-1.82 0.79,-0.22 0.42,10.52 -0.09,30.99 2.06,30.34 1.93,-1.92 2.85,-22.29 3.78,-31.39 0.12,-0.22 0.81,-0.56 0.84,0.57 0.39,10.49 -0.39,30.83 1.27,30.56 2.68,-10 2.1,-20.3 3.7,-30.56 0.11,-0.72 0.68,-0.67 0.7,-0.05 0.67,8.25 2.33,41.21 0.09,44.6 -2.35,3.56 -6.65,5.36 -6.74,8.95 1.67,31.32 3.2,60.06 4.86,91.38 -1.92,8.59 -11.54,8.5 -14.32,1.46l3.93 -93.1z"/>
    <path class="fil0" d="M192.7 109.3c-10.96,-8.62 -22.93,-44.97 3.69,-48.03 24.33,2.93 18.57,37.55 1.89,48.19 1.67,31.33 3.25,66.01 2.07,97.36 -0.27,7.24 -13.38,8.19 -13.24,0.41 0.57,-31.55 3.74,-66.42 5.58,-97.92z"/>
    <path class="fil0" d="M154.29 64.88c7.27,-25.78 28.78,58.85 6.87,59.69 1.67,31.32 7.1,50.59 5.92,81.94 -0.27,7.24 -13.38,8.19 -13.24,0.41 0.57,-31.54 -1.4,-110.53 0.45,-142.03z"/>
   </g>
  </g>
 </g>
</svg>
