<?xml version="1.0" encoding="UTF-8"?>
<!DOCTYPE svg PUBLIC "-//W3C//DTD SVG 1.1//EN" "http://www.w3.org/Graphics/SVG/1.1/DTD/svg11.dtd">
<!-- Creator: CorelDRAW 2019 (64-Bit) -->
<svg xmlns="http://www.w3.org/2000/svg" xml:space="preserve" width="30.5198mm" height="28.3408mm" version="1.1" style="shape-rendering:geometricPrecision; text-rendering:geometricPrecision; image-rendering:optimizeQuality; fill-rule:evenodd; clip-rule:evenodd"
viewBox="0 0 556.1 516.4"
 xmlns:xlink="http://www.w3.org/1999/xlink">
 <defs>
  <style type="text/css">
   <![CDATA[
    .str0 {stroke:#CACACC;stroke-width:12.86;stroke-miterlimit:22.9256}
    .fil0 {fill:none}
   ]]>
  </style>
 </defs>
 <g id="Capa_x0020_1">
  <metadata id="CorelCorpID_0Corel-Layer"/>
  <path class="fil0 str0" d="M393.73 421.49c24.75,0 44.81,19.81 44.81,44.24 0,24.43 -20.06,44.24 -44.81,44.24 -24.75,0 -44.81,-19.81 -44.81,-44.24 0,-24.43 20.06,-44.24 44.81,-44.24z"/>
  <path class="fil0 str0" d="M211.25 421.49c24.75,0 44.81,19.81 44.81,44.24 0,24.43 -20.06,44.24 -44.81,44.24 -24.75,0 -44.81,-19.81 -44.81,-44.24 0,-24.43 20.06,-44.24 44.81,-44.24z"/>
  <path class="fil0 str0" d="M1.06 9.5c56.19,-9.42 82.33,0.45 92.01,61.93l64.72 233.98c2.63,25.01 -49.2,53.99 7.88,75.04l327.14 3.04"/>
  <polyline class="fil0 str0" points="203.57,112.43 183.85,57.52 289.4,19.82 318.14,113.22 "/>
  <polyline class="fil0 str0" points="353.93,115.54 334.2,60.63 439.76,22.93 468.5,116.33 "/>
  <polygon class="fil0 str0" points="105.29,115.54 547.7,115.54 497.78,299.3 157.71,301.48 "/>
 </g>
</svg>
